<svg id="Capa_1" data-name="Capa 1" xmlns="http://www.w3.org/2000/svg" viewBox="0 0 130 195"><title>iconos para mapa interactivo 2018</title><path d="M128.94,67.89c0,37-38.37,126.19-63.94,126.19-23.56,0-63.94-89.21-63.94-126.19S28,.92,65,.92,128.94,30.9,128.94,67.89Z" style="fill:#fff;stroke:#1b1464;stroke-miterlimit:10"/><circle cx="67.71" cy="66.03" r="44.22" style="fill:#fff"/><path d="M65.53,12.67A53.37,53.37,0,1,0,118.89,66,53.37,53.37,0,0,0,65.53,12.67ZM92.59,89.2a1,1,0,0,1-1,1H82.63a1,1,0,0,1-1-1V84.5h0V82.65a1,1,0,0,0-1-1h-30a1,1,0,0,0-1,1V84.5h0v4.7a1,1,0,0,1-1,1H39.51a1,1,0,0,1-1-1V85.54a1,1,0,0,1,1-1h3.75a1,1,0,0,0,1-1v-6a1,1,0,0,1,1-1H61.91a1,1,0,0,0,1-1V67.35a1,1,0,0,0-1-1H45.34a1,1,0,0,1-1-1v-6a1,1,0,0,0-1-1H40.65a1,1,0,0,1-1-1V53.56a1,1,0,0,1,1-1h7.77a1,1,0,0,1,1,1v4.7h0v1.85a1,1,0,0,0,1,1H61.91a1,1,0,0,0,1-1v-3a1,1,0,0,0-1-1H58a1,1,0,0,1-1-1V44.14a1,1,0,0,1,1-1H73.09a1,1,0,0,1,1,1V55.06a1,1,0,0,1-1,1H69.15a1,1,0,0,0-1,1v3a1,1,0,0,0,1,1h11.4a1,1,0,0,0,1-1V58.26h0v-4.7a1,1,0,0,1,1-1H90.4a1,1,0,0,1,1,1v3.66a1,1,0,0,1-1,1H87.8a1,1,0,0,0-1,1v6a1,1,0,0,1-1,1H69.15a1,1,0,0,0-1,1V75.4a1,1,0,0,0,1,1H85.72a1,1,0,0,1,1,1v6a1,1,0,0,0,1,1h3.75a1,1,0,0,1,1,1Z" style="fill:#1b1464"/></svg>