<svg id="Capa_1" data-name="Capa 1" xmlns="http://www.w3.org/2000/svg" viewBox="0 0 130 195"><title>iconos para mapa interactivo 2018</title><path d="M128.94,67.89c0,37-38.37,126.19-63.94,126.19-23.56,0-63.94-89.21-63.94-126.19S28,.92,65,.92,128.94,30.9,128.94,67.89Z" style="fill:#fff;stroke:#34acaf;stroke-miterlimit:10"/><circle cx="65.62" cy="63.99" r="44.22" style="fill:#fff"/><path d="M47.92,72H50.3a7.15,7.15,0,0,0-1-2Z" style="fill:#34acaf"/><path d="M62.7,68a6.41,6.41,0,0,1,2.76.47l8.84-9H58.85Z" style="fill:#34acaf"/><path d="M41.48,75.43A2.31,2.31,0,0,1,41.6,73l3.82-5.6a6.73,6.73,0,0,0-1.9-.29,7.2,7.2,0,1,0,6.78,9.52H43.52A2.31,2.31,0,0,1,41.48,75.43Z" style="fill:#34acaf"/><path d="M52,66.06a11.84,11.84,0,0,1,3.16,6h2a6.42,6.42,0,0,1,1.35-2.09l-3.64-8.06Z" style="fill:#34acaf"/><path d="M65.62,12.67A53.37,53.37,0,1,0,119,66,53.36,53.36,0,0,0,65.62,12.67Zm22.1,73.52a11.84,11.84,0,0,1-6.89-21.46L79.2,61.11,68.78,71.76a7,7,0,0,1,.42,1.29,6.33,6.33,0,0,1-12.08,3.62h-2a11.83,11.83,0,1,1-7-13.23l4.45-6.54-2.23-5H48a2.32,2.32,0,0,1,0-4.64h8.53a2.32,2.32,0,0,1,0,4.64h-1.1l1.3,2.88H76.36l-1.93-4.3h-2.9a2.32,2.32,0,0,1,0-4.64h4.39A2.32,2.32,0,0,1,78,47.25l7,15.57a11.58,11.58,0,0,1,2.65-.31,11.84,11.84,0,1,1,0,23.68Z" style="fill:#34acaf"/><path d="M87.72,67.15c-.23,0-.44,0-.66.07l2.78,6.17a2.31,2.31,0,0,1-1.17,3.07,2.26,2.26,0,0,1-1,.21A2.34,2.34,0,0,1,85.6,75.3l-2.79-6.18a7.13,7.13,0,0,0-2.28,5.22,7.2,7.2,0,1,0,7.19-7.19Z" style="fill:#34acaf"/></svg>