<svg id="Capa_1" data-name="Capa 1" xmlns="http://www.w3.org/2000/svg" viewBox="0 0 130 195"><title>iconos para mapa interactivo 2018</title><path d="M128.94,67.89c0,37-38.37,126.19-63.94,126.19-23.56,0-63.94-89.21-63.94-126.19S28,.92,65,.92,128.94,30.9,128.94,67.89Z" style="fill:#fff;stroke:#a3112a;stroke-miterlimit:10"/><circle cx="67.95" cy="66.03" r="44.22" style="fill:#fff"/><path d="M65.55,12.67A53.37,53.37,0,1,0,118.92,66,53.36,53.36,0,0,0,65.55,12.67Zm18.16,64c0,4.22-4.25,8.16-9.5,8.8s-9.48-2-9.48-6.26,4.24-8.15,9.48-8.8a9.59,9.59,0,0,1,5.57.73v-16c0-2-2.16-1.29-2.16-1.29L58.06,60s-2.25.79-2.25,2.67V82.6c0,4.23-3.85,8.13-9.08,8.87s-9.5-1.85-9.5-6.07,4.25-8.24,9.5-9c3.56-.5,5.17.58,5.17.58V53.67a6.93,6.93,0,0,1,4.85-6.24l22.11-6.77c2.68-.76,4.85.79,4.85,3.47Z" style="fill:#a3112a"/></svg>