<svg id="Capa_1" data-name="Capa 1" xmlns="http://www.w3.org/2000/svg" viewBox="0 0 130 195"><title>iconos para mapa interactivo 2018</title><path d="M128.94,67.89c0,37-38.37,126.19-63.94,126.19-23.56,0-63.94-89.21-63.94-126.19S28,.92,65,.92,128.94,30.9,128.94,67.89Z" style="fill:#fff;stroke:#34acaf;stroke-miterlimit:10"/><circle cx="65.32" cy="66.03" r="53.36" style="fill:#34acaf"/><rect x="62.89" y="34.65" width="4.91" height="63.01" rx="2.25" ry="2.25" style="fill:#fff"/><path d="M54.43,93.74H76.15a2,2,0,0,1,2,2v2.88a0,0,0,0,1,0,0H52.48a0,0,0,0,1,0,0V95.69A2,2,0,0,1,54.43,93.74Z" style="fill:#fff"/><path d="M43.43,56.22H59.68A1.23,1.23,0,0,0,60.9,55v-5.2a1.22,1.22,0,0,0-1.22-1.22H43.43a3.27,3.27,0,0,0-1.62.43l-5.23,3a.47.47,0,0,0,0,.81l5.23,3A3.27,3.27,0,0,0,43.43,56.22Z" style="fill:#fff"/><path d="M43.43,45.41H59.68a1.23,1.23,0,0,0,1.22-1.23V39a1.23,1.23,0,0,0-1.22-1.23H43.43a3.27,3.27,0,0,0-1.62.43l-5.23,3a.47.47,0,0,0,0,.81l5.23,3A3.27,3.27,0,0,0,43.43,45.41Z" style="fill:#fff"/><path d="M87.88,53.09H71.64a1.23,1.23,0,0,1-1.23-1.22v-5.2a1.23,1.23,0,0,1,1.23-1.22H87.88a3.27,3.27,0,0,1,1.62.43l5.23,3a.46.46,0,0,1,0,.8l-5.23,3A3.27,3.27,0,0,1,87.88,53.09Z" style="fill:#fff"/></svg>