<svg id="Capa_1" data-name="Capa 1" xmlns="http://www.w3.org/2000/svg" viewBox="0 0 130 195"><title>iconos para mapa interactivo 2018</title><path d="M129.07,67.89c0,37-38.36,126.19-63.94,126.19-23.55,0-63.94-89.21-63.94-126.19s27-67,63.94-67S129.07,30.9,129.07,67.89Z" style="fill:#fff;stroke:#ffb400;stroke-miterlimit:10"/><circle cx="65.67" cy="66.03" r="44.22" style="fill:#fff"/><path d="M83.46,74.29H47.91c-.89,0-1.62,1-1.62,2.23s.73,2.23,1.62,2.23H83.46c.89,0,1.61-1,1.61-2.23S84.35,74.29,83.46,74.29Z" style="fill:#ffb400"/><path d="M83.46,64H47.91c-.89,0-1.62,1-1.62,2.22s.73,2.22,1.62,2.22H83.46c.89,0,1.61-1,1.61-2.22S84.35,64,83.46,64Z" style="fill:#ffb400"/><path d="M65.68,12.67A53.37,53.37,0,1,0,119.05,66,53.36,53.36,0,0,0,65.68,12.67ZM92.36,83.83a3,3,0,0,1-3,3.09H70.65l0,0L69,89.72l-1.6,2.76a2,2,0,0,1-3.5,0l-1.6-2.76L60.73,87s0,0,0,0H42a3,3,0,0,1-3-3.09V48.45a3.05,3.05,0,0,1,3-3.1H89.36a3.06,3.06,0,0,1,3,3.1Z" style="fill:#ffb400"/><path d="M83.46,53.66H47.91c-.89,0-1.62,1-1.62,2.23s.73,2.24,1.62,2.24H83.46c.89,0,1.61-1,1.61-2.24S84.35,53.66,83.46,53.66Z" style="fill:#ffb400"/></svg>