<svg id="Capa_1" data-name="Capa 1" xmlns="http://www.w3.org/2000/svg" viewBox="0 0 130 195"><title>iconos para mapa interactivo 2018</title><path d="M129.07,67.89c0,37-38.36,126.19-63.94,126.19-23.55,0-63.94-89.21-63.94-126.19s27-67,63.94-67S129.07,30.9,129.07,67.89Z" style="fill:#fff;stroke:#34acaf;stroke-miterlimit:10"/><circle cx="65.69" cy="65.94" r="53.36" style="fill:#34acaf"/><circle cx="59.52" cy="37.82" r="7.56" style="fill:#fff"/><path d="M74.21,101.08H72.44l9.62-49.73a.59.59,0,0,1,.49-.52l.7.1c.32,0,.55.32.47.7Z" style="fill:#fff"/><path d="M93.75,60.28,83,50.88,80.11,65.56,93.61,61A.41.41,0,0,0,93.75,60.28Z" style="fill:#fff"/><rect x="34.44" y="50.02" width="19.37" height="10.08" rx="2.9" ry="2.9" transform="translate(-20.06 84.38) rotate(-75.84)" style="fill:#fff;opacity:0.96"/><path d="M54.08,76.61l1.63,1.51,4.92,19.71c.61,2.43,2.7,4.08,4.66,3.69a2.85,2.85,0,0,0,.39-.11c1.71-.6,2.61-2.74,2-5L62,73.39l-1.15-3.13,1.29-5.12c1.73,2.18,5.71,4.47,10.1,5.57,1.12.28,2.35.53,3.71.77A3.17,3.17,0,0,0,77,65.24c-9.6-1.66-10-5.26-10.77-12a7.54,7.54,0,0,0-4.07-5.59A6.84,6.84,0,0,0,60.49,47a12.32,12.32,0,0,0-1.85-.23h0c-2.83,0-6.2,1.44-7,4.69L47.32,68.91c-.42,1.68-.63,2.66-.63,2.66l-.45,1.6L39.55,96.34c-.67,2.24.15,4.41,1.83,5.08l.38.12c2,.47,4.1-1.1,4.81-3.5l5.72-19.89L54,76.7" style="fill:#fff"/></svg>