<svg id="Capa_1" data-name="Capa 1" xmlns="http://www.w3.org/2000/svg" viewBox="0 0 130 195"><title>iconos para mapa interactivo 2018</title><path d="M128.94,67.89c0,37-38.37,126.19-63.94,126.19-23.56,0-63.94-89.21-63.94-126.19S28,.92,65,.92,128.94,30.9,128.94,67.89Z" style="fill:#fff;stroke:#a3112a;stroke-miterlimit:10"/><circle cx="65.55" cy="66.03" r="44.22" style="fill:#fff"/><path d="M50.31,50.43a4.4,4.4,0,1,0,5.83,2.16A4.5,4.5,0,0,0,50.31,50.43Z" style="fill:#a3112a"/><path d="M63.65,44.3a4.4,4.4,0,1,0,5.84,2.16A4.5,4.5,0,0,0,63.65,44.3Z" style="fill:#a3112a"/><path d="M47.21,64.77A4.4,4.4,0,1,0,53,66.93,4.5,4.5,0,0,0,47.21,64.77Z" style="fill:#a3112a"/><path d="M76.57,51.29a4.4,4.4,0,1,0,5.83,2.16A4.51,4.51,0,0,0,76.57,51.29Z" style="fill:#a3112a"/><path d="M65.55,12.67A53.37,53.37,0,1,0,118.92,66,53.36,53.36,0,0,0,65.55,12.67ZM81.12,71.8,76.33,74a4.53,4.53,0,0,0-2.16,5.86A5.3,5.3,0,0,0,76.45,82a3.75,3.75,0,0,1,2.29,2.18,4.51,4.51,0,0,1-2.16,5.84A26.43,26.43,0,0,1,54.52,42C67.87,35.89,83,40.6,88.34,52.33A14.53,14.53,0,0,1,81.12,71.8Z" style="fill:#a3112a"/></svg>