<svg id="Capa_1" data-name="Capa 1" xmlns="http://www.w3.org/2000/svg" viewBox="0 0 130 195"><title>iconos para mapa interactivo 2018</title><path d="M129.07,67.89c0,37-38.36,126.19-63.94,126.19-23.55,0-63.94-89.21-63.94-126.19s27-67,63.94-67S129.07,30.9,129.07,67.89Z" style="fill:#fff;stroke:#ffb400;stroke-miterlimit:10"/><circle cx="64.75" cy="65.94" r="44.22" style="fill:#fff"/><rect x="41.68" y="50.67" width="6.54" height="6.54" style="fill:#ffb400"/><rect x="41.68" y="63.76" width="6.54" height="6.54" style="fill:#ffb400"/><path d="M65.68,12.58a53.36,53.36,0,1,0,53.37,53.36A53.36,53.36,0,0,0,65.68,12.58ZM94.05,89.94a2.19,2.19,0,0,1-2.18,2.18H89.68V89.94H83.14v2.18H48.23V89.94H41.68v2.18H39.5a2.18,2.18,0,0,1-2.18-2.18v-48a2.18,2.18,0,0,1,2.18-2.18h2.18v4.35h6.55V39.76H83.14v4.35h6.54V39.76h2.19a2.19,2.19,0,0,1,2.18,2.18Z" style="fill:#ffb400"/><rect x="41.68" y="76.84" width="6.54" height="6.55" style="fill:#ffb400"/><path d="M75.69,64.51,61.5,56.23a1.68,1.68,0,0,0-1.6.07,1.59,1.59,0,0,0-.76,1.37V74.21a1.59,1.59,0,0,0,.76,1.37,1.68,1.68,0,0,0,1.6.07l14.19-8.28a1.59,1.59,0,0,0,0-2.86Z" style="fill:#ffb400"/><rect x="83.14" y="50.67" width="6.54" height="6.54" style="fill:#ffb400"/><rect x="83.14" y="76.84" width="6.54" height="6.55" style="fill:#ffb400"/><rect x="83.14" y="63.76" width="6.54" height="6.54" style="fill:#ffb400"/></svg>