<svg id="Capa_1" data-name="Capa 1" xmlns="http://www.w3.org/2000/svg" viewBox="0 0 130 195"><title>iconos para mapa interactivo 2018</title><path d="M128.94,67.89c0,37-38.37,126.19-63.94,126.19-23.56,0-63.94-89.21-63.94-126.19S28,.92,65,.92,128.94,30.9,128.94,67.89Z" style="fill:#fff;stroke:#1b1464;stroke-miterlimit:10"/><circle cx="66.7" cy="66.52" r="44.22" style="fill:#fff"/><path d="M65.52,12.56a53.37,53.37,0,1,0,53.37,53.36A53.36,53.36,0,0,0,65.52,12.56ZM37.61,56.8,49.8,48.07,64.58,37.48a1.62,1.62,0,0,1,1.88,0L81.25,48.07,93.44,56.8a1.4,1.4,0,0,1-.94,2.53H38.55A1.4,1.4,0,0,1,37.61,56.8Zm49.44,7.37v15A1.69,1.69,0,0,1,85.53,81H82.71a1.69,1.69,0,0,1-1.52-1.84v-15a1.68,1.68,0,0,1,1.52-1.84h2.82A1.68,1.68,0,0,1,87.05,64.17Zm-12.39,0v15A1.69,1.69,0,0,1,73.15,81H70.32a1.69,1.69,0,0,1-1.52-1.84v-15a1.68,1.68,0,0,1,1.52-1.84h2.83A1.68,1.68,0,0,1,74.66,64.17Zm-12.42,0v15A1.68,1.68,0,0,1,60.73,81H57.9a1.68,1.68,0,0,1-1.51-1.84v-15a1.67,1.67,0,0,1,1.51-1.84h2.83A1.67,1.67,0,0,1,62.24,64.17Zm-12.38,0v15A1.69,1.69,0,0,1,48.34,81H45.52A1.69,1.69,0,0,1,44,79.15v-15a1.68,1.68,0,0,1,1.52-1.84h2.82A1.68,1.68,0,0,1,49.86,64.17ZM94,91.28H37V88.62a1,1,0,0,1,1-1h1.24V85a1,1,0,0,1,1-1H90.69a1.14,1.14,0,0,1,1.13,1.13v2.51H93a1,1,0,0,1,1,1Z" style="fill:#1b1464"/></svg>