<svg id="Capa_1" data-name="Capa 1" xmlns="http://www.w3.org/2000/svg" viewBox="0 0 130 195"><title>iconos para mapa interactivo 2018</title><path d="M128.94,67.89c0,37-38.37,126.19-63.94,126.19-23.56,0-63.94-89.21-63.94-126.19S28,.92,65,.92,128.94,30.9,128.94,67.89Z" style="fill:#fff;stroke:#a3112a;stroke-miterlimit:10"/><circle cx="65.52" cy="64.3" r="44.22" style="fill:#fff"/><path d="M65.52,12.57a53.37,53.37,0,1,0,53.36,53.37A53.37,53.37,0,0,0,65.52,12.57ZM37.19,87.06a1.48,1.48,0,0,1-1.48-1.48V76.1c9.4-.87,12.9,3.38,13.8,4.84a12.86,12.86,0,0,1,1.55,6.12Zm58.14-1.48a1.48,1.48,0,0,1-1.48,1.48H80a12.86,12.86,0,0,1,1.55-6.12c.9-1.46,4.4-5.71,13.8-4.84Zm0-13.88c-5.33-.43-9.19.55-11.94,2-12.5-3.23-13.61-18.55-13.61-18.55H61.26S60.15,70.44,47.65,73.67c-2.75-1.42-6.61-2.4-11.94-2V47.31a2.49,2.49,0,0,1,2.49-2.49H92.84a2.49,2.49,0,0,1,2.49,2.49Z" style="fill:#a3112a"/></svg>