<svg id="Capa_1" data-name="Capa 1" xmlns="http://www.w3.org/2000/svg" viewBox="0 0 130 195"><title>iconos para mapa interactivo 2018</title><path d="M128.94,67.89c0,37-38.37,126.19-63.94,126.19-23.56,0-63.94-89.21-63.94-126.19S28,.92,65,.92,128.94,30.9,128.94,67.89Z" style="fill:#fff;stroke:#34acaf;stroke-miterlimit:10"/><circle cx="66.73" cy="66.63" r="44.22" style="fill:#fff"/><path d="M65,66.67a3,3,0,0,0-2.68,2.81v5.65h6.44v-5.8C68.77,67.69,67,66.39,65,66.67Z" style="fill:#34acaf"/><path d="M65.55,12.67A53.37,53.37,0,1,0,118.92,66,53.36,53.36,0,0,0,65.55,12.67ZM62.13,33.46h2V30.59a1.42,1.42,0,0,1,2.8,0v2.87h2a1.2,1.2,0,1,1,0,2.36H67v5.23a1.42,1.42,0,0,1-2.8,0V35.82h-2a1.2,1.2,0,1,1,0-2.36ZM55.28,57.88l8-12.07A2,2,0,0,1,65,45h1.18a2,2,0,0,1,1.69.83l8,12.07c.54.82-.17,1.83-1.28,1.83h-18C55.44,59.71,54.73,58.7,55.28,57.88ZM86.14,97.11a2.38,2.38,0,0,1-2.56,2.15H71.68V88.89c0-3.18-3.43-5.69-7.35-5a5.55,5.55,0,0,0-4.91,5.24V99.26H47.52A2.37,2.37,0,0,1,45,97.12V83.71a2.06,2.06,0,0,1,1-1.69l10.39-6.9V63.59a.94.94,0,0,1,1-.85H73.59a1.11,1.11,0,0,1,1.19,1V75.12L85.16,82a2,2,0,0,1,1,1.69Z" style="fill:#34acaf"/></svg>