<svg id="Capa_1" data-name="Capa 1" xmlns="http://www.w3.org/2000/svg" viewBox="0 0 130 195"><title>iconos para mapa interactivo 2018</title><path d="M128.94,68.08c0,37-38.37,126.19-63.94,126.19-23.56,0-63.94-89.21-63.94-126.19s27-67,63.94-67S128.94,31.1,128.94,68.08Z" style="fill:#fff;stroke:#34acaf;stroke-miterlimit:10"/><circle cx="65.55" cy="67.34" r="44.22" style="fill:#fff"/><path d="M65.55,12.86a53.37,53.37,0,1,0,53.36,53.37A53.36,53.36,0,0,0,65.55,12.86ZM35.92,55.41,64.22,40a2.13,2.13,0,0,1,2,0L94.49,55.38a2.15,2.15,0,0,1,0,3.77L66.24,74.56a2.13,2.13,0,0,1-2,0L35.92,59.12A2.11,2.11,0,0,1,35.92,55.41ZM95.36,66.59V79.66a1.86,1.86,0,1,1-3.71,0V66.59a1.86,1.86,0,1,1,3.71,0ZM86,80.79A1.42,1.42,0,0,1,85.29,82L65.91,92.56a1.43,1.43,0,0,1-1.36,0L45.16,82a1.43,1.43,0,0,1-.75-1.25V72.14a1.43,1.43,0,0,1,2.11-1.25l18,9.78a1.43,1.43,0,0,0,1.36,0l18-9.78A1.42,1.42,0,0,1,86,72.14Zm7.47,9.74a2.78,2.78,0,1,1,2.78-2.77A2.77,2.77,0,0,1,93.5,90.53Z" style="fill:#34acaf"/></svg>