<svg id="Capa_1" data-name="Capa 1" xmlns="http://www.w3.org/2000/svg" viewBox="0 0 130 195"><title>iconos para mapa interactivo 2018</title><path d="M129.07,67.89c0,37-38.36,126.19-63.94,126.19-23.55,0-63.94-89.21-63.94-126.19s27-67,63.94-67S129.07,30.9,129.07,67.89Z" style="fill:#fff;stroke:#e74f1c;stroke-miterlimit:10"/><circle cx="65.68" cy="64.17" r="44.22" style="fill:#fff"/><path d="M76.79,62a4,4,0,1,0,4,4A4,4,0,0,0,76.79,62Z" style="fill:#e74f1c"/><path d="M58.11,58.71H53.64V54.15a1.81,1.81,0,0,0-1.79-1.83H50.51a1.81,1.81,0,0,0-1.79,1.83v4.56H44.26a1.8,1.8,0,0,0-1.79,1.82V61.9a1.81,1.81,0,0,0,1.79,1.83h4.46v4.55a1.82,1.82,0,0,0,1.8,1.83h1.34a1.81,1.81,0,0,0,1.78-1.83V63.73h4.47A1.82,1.82,0,0,0,59.9,61.9V60.53A1.81,1.81,0,0,0,58.11,58.71Z" style="fill:#e74f1c"/><path d="M83.2,52.37a4,4,0,1,0,4,4A4,4,0,0,0,83.2,52.37Z" style="fill:#e74f1c"/><path d="M65.68,12.67A53.37,53.37,0,1,0,119.05,66,53.36,53.36,0,0,0,65.68,12.67ZM93.46,85.52c-3.38,4.13-9.94,2.85-11.57,1.73-3.83-2.64-7.83-7.8-7.83-7.8a4.85,4.85,0,0,0-2-2,7.25,7.25,0,0,0-3.27-.35H62.67a4.06,4.06,0,0,0-2.86.17A9.84,9.84,0,0,0,57,80.57a24.28,24.28,0,0,1-6.1,6.27c-5,3.16-8.77,1.14-10.43,0,.24.17-6.22-3.62-4.87-15.41,2.19-19.11,9.49-25.23,10.52-25.95,4.32-3.1,8.69-1.68,11.31-.68,2.08.81,3.58,2.61,5.29,3.44a9.07,9.07,0,0,0,7.1,0c1.8-.76,3-2.51,4.8-3.43A12.39,12.39,0,0,1,85,44.8c2.56,1.35,6.75,4.7,9.72,18.33C97.18,74.5,95.67,82.81,93.46,85.52Z" style="fill:#e74f1c"/></svg>