<svg id="Capa_1" data-name="Capa 1" xmlns="http://www.w3.org/2000/svg" viewBox="0 0 130 195"><title>iconos para mapa interactivo 2018</title><path d="M129.07,67.89c0,37-38.36,126.19-63.94,126.19-23.55,0-63.94-89.21-63.94-126.19s27-67,63.94-67S129.07,30.9,129.07,67.89Z" style="fill:#fff;stroke:#692dac;stroke-miterlimit:10"/><circle cx="65.71" cy="66.03" r="44.22" style="fill:#fff"/><path d="M65.68,12.67A53.37,53.37,0,1,0,119.05,66,53.36,53.36,0,0,0,65.68,12.67ZM89.81,45.76a5,5,0,1,1-5,5A5,5,0,0,1,89.81,45.76ZM65.67,42.85a5.23,5.23,0,1,1-5.23,5.23A5.23,5.23,0,0,1,65.67,42.85ZM41.55,45.76a5,5,0,1,1-5,5A5,5,0,0,1,41.55,45.76Zm1.79,33.78V89H41.1V79.57H34.36V89H32.11V79.19a1.87,1.87,0,0,1-.75-1.49V61.42a1.88,1.88,0,0,1,3.75,0v9.77s-.52,4.64,4.61,4.64H43a1.87,1.87,0,0,1,.3,3.71ZM49.85,87a2.45,2.45,0,0,1-2.42,2.22h-.22A2.43,2.43,0,0,1,45,86.57c.26-3,.59-5.81.8-8.33a2.87,2.87,0,0,0-3-3.4H39.73a3.51,3.51,0,0,1-3.85-3.68V60.1c0-2.06,1.8-3.43,3.49-3.84h0a6.91,6.91,0,0,1,1.14-.14,4,4,0,0,1,1.09.15A4.65,4.65,0,0,1,44.88,59c1.45,3.9,2.23,6,8.2,5.54a1.95,1.95,0,0,1,.29,3.88c-.85.06-1.62.1-2.33.1-2.78,0-4.6-.49-6-1.53v3.24c3.92.27,4.67,1.27,5.06,2S51,73.85,49.85,87ZM80.53,72.61H78.84V89.09H75.59V72.61h-3.4a2.41,2.41,0,0,1,.31,1.47L71,86.92a2.44,2.44,0,0,1-2.42,2.17l-.26,0a2.43,2.43,0,0,1-2.16-2.68l1.34-11-1.79-.74-1.85.75,1.34,11A2.43,2.43,0,0,1,63,89.06l-.27,0a2.43,2.43,0,0,1-2.41-2.17L58.79,74.09a2.43,2.43,0,0,1,.31-1.48H55.75V89.09H52.5V72.61H50.83V69.12h4.76c-.36-3-.85-12.18,7-14.91.14-.05,1.36-.49,1.84-.61h0l1.28,1.32L67,53.6c.48.11,1.7.56,1.86.61,7.77,2.57,7.31,11.92,7,14.91h4.75Zm5.84,14a2.45,2.45,0,0,1-2.22,2.64h-.21A2.43,2.43,0,0,1,81.52,87c-1.15-13.15-.64-14-.28-14.78s1.14-1.73,5.05-2V67c-1.36,1-3.19,1.53-6,1.53-.72,0-1.49,0-2.33-.1a1.95,1.95,0,0,1,.28-3.88c6,.45,6.75-1.64,8.21-5.54a4.63,4.63,0,0,1,3.26-2.72,3.92,3.92,0,0,1,1.08-.15,6.91,6.91,0,0,1,1.14.14h0c1.68.41,3.48,1.78,3.48,3.84V71.16c0,2.4-1.64,3.68-3.85,3.68H88.54a2.87,2.87,0,0,0-3,3.4C85.78,80.76,86.1,83.56,86.37,86.57ZM100,77.7a1.87,1.87,0,0,1-.75,1.49V89H97V79.58H90.27V89H88v-9.5a1.87,1.87,0,0,1,.31-3.71h3.32c5.13,0,4.61-4.64,4.61-4.64V61.42a1.87,1.87,0,0,1,3.74,0Z" style="fill:#692dac"/><path d="M71,69.12h.66c.13-.88.64-4.88-.66-7.87Z" style="fill:#692dac"/><polygon points="65.67 55.11 64.4 63.54 65.67 65.27 65.69 65.27 66.94 63.54 65.69 55.11 65.67 55.11" style="fill:#692dac"/><path d="M59.7,69.12h.62V61.27C59.07,64.25,59.57,68.24,59.7,69.12Z" style="fill:#692dac"/></svg>