<svg id="Capa_1" data-name="Capa 1" xmlns="http://www.w3.org/2000/svg" viewBox="0 0 130 195"><title>iconos para mapa interactivo 2018</title><path d="M128.94,67.89c0,37-38.37,126.19-63.94,126.19-23.56,0-63.94-89.21-63.94-126.19S28,.92,65,.92,128.94,30.9,128.94,67.89Z" style="fill:#fff;stroke:#34acaf;stroke-miterlimit:10"/><path d="M65.55,12.67A53.37,53.37,0,1,0,118.91,66,53.36,53.36,0,0,0,65.55,12.67Zm20.2,77.21H73.25V76.14a1.61,1.61,0,0,0-1.6-1.61H58.49a1.33,1.33,0,0,0-1.33,1.34v14H45.3V58.09H85.75Zm0-38.48H45.3V47.74a1.12,1.12,0,0,1,1.12-1.12H84.48a1.27,1.27,0,0,1,1.27,1.27Z" style="fill:#34acaf"/></svg>