<svg id="Capa_1" data-name="Capa 1" xmlns="http://www.w3.org/2000/svg" viewBox="0 0 130 195"><title>iconos para mapa interactivo 2018</title><path d="M129.07,67.89c0,37-38.36,126.19-63.94,126.19-23.55,0-63.94-89.21-63.94-126.19s27-67,63.94-67S129.07,30.9,129.07,67.89Z" style="fill:#fff;stroke:#34acaf;stroke-miterlimit:10"/><circle cx="66.87" cy="64.18" r="44.22" style="fill:#fff"/><polygon points="50.32 53.51 79.6 53.51 82.41 49.99 47.51 49.99 50.32 53.51" style="fill:#34acaf"/><path d="M65.6,12.64A53.37,53.37,0,1,0,119,66,53.37,53.37,0,0,0,65.6,12.64ZM87.45,49.33,66.72,75.24v17h7a1.76,1.76,0,1,1,0,3.51H56.16a1.76,1.76,0,1,1,0-3.51h7v-17L42.47,49.33a1.76,1.76,0,0,1,1.37-2.86H86.07a1.76,1.76,0,0,1,1.38,2.86Zm1.66,3.92,1.26-1.58a5.5,5.5,0,0,0-4.3-8.94H79A8.58,8.58,0,1,1,89.11,53.25Z" style="fill:#34acaf"/></svg>