<svg id="Capa_1" data-name="Capa 1" xmlns="http://www.w3.org/2000/svg" viewBox="0 0 130 195"><title>iconos para mapa interactivo 2018</title><path d="M128.94,67.89c0,37-38.37,126.19-63.94,126.19-23.56,0-63.94-89.21-63.94-126.19S28,.92,65,.92,128.94,30.9,128.94,67.89Z" style="fill:#fff;stroke:#e74f1c;stroke-miterlimit:10"/><circle cx="64.62" cy="66.03" r="44.22" style="fill:#fff"/><path d="M79.81,65.14,64.65,80.31a.1.1,0,0,0,.07.18H79.89a.11.11,0,0,0,.1-.11V65.22A.11.11,0,0,0,79.81,65.14Z" style="fill:#e74f1c"/><path d="M65.55,12.67A53.37,53.37,0,1,0,118.92,66,53.36,53.36,0,0,0,65.55,12.67Zm8.29,25,3-.81a.84.84,0,0,1,1,1l-.81,3-1.18,4.43-3.25-3.24-3.25-3.25Zm-7.67,4.42,6.5,6.5L46.93,74.34l-6.49-6.49ZM38.65,81.36l-5.27-5.27a.83.83,0,0,1,0-1.18l3.78-3.79,6.5,6.49-3.74,3.75A.9.9,0,0,1,38.65,81.36Zm51.19,7.89a1.08,1.08,0,0,1-1.08,1.09H42.5A.8.8,0,0,1,41.94,89l6.7-6.7a.1.1,0,0,1,.14,0l2.39,2.39a2.37,2.37,0,0,0,3.07.32,2.61,2.61,0,0,0,.2-3.95l-2.21-2.21a.1.1,0,0,1,0-.14L56,74.89a.11.11,0,0,1,.15,0l2.39,2.39a2.37,2.37,0,0,0,3.07.32,2.61,2.61,0,0,0,.2-3.95l-2.21-2.21a.1.1,0,0,1,0-.14l3.79-3.8a.11.11,0,0,1,.15,0L66,69.89a2.37,2.37,0,0,0,3.07.32,2.61,2.61,0,0,0,.2-3.95L67,64.06a.11.11,0,0,1,0-.15l3.79-3.8a.11.11,0,0,1,.15,0l2.39,2.39a2.37,2.37,0,0,0,3.07.32,2.61,2.61,0,0,0,.2-4l-2.21-2.2a.11.11,0,0,1,0-.15l3.79-3.8a.11.11,0,0,1,.15,0l2.39,2.39a2.36,2.36,0,0,0,3.07.32,2.61,2.61,0,0,0,.2-4l-2.21-2.2a.11.11,0,0,1,0-.15l6.48-6.48a.92.92,0,0,1,1.57.65Z" style="fill:#e74f1c"/></svg>