<svg id="Capa_1" data-name="Capa 1" xmlns="http://www.w3.org/2000/svg" viewBox="0 0 130 195"><title>iconos para mapa interactivo 2018</title><path d="M128.94,67.89c0,37-38.37,126.19-63.94,126.19-23.56,0-63.94-89.21-63.94-126.19S28,.92,65,.92,128.94,30.9,128.94,67.89Z" style="fill:#fff;stroke:#34acaf;stroke-miterlimit:10"/><circle cx="63.38" cy="65.94" r="44.22" style="fill:#fff"/><path d="M65.52,12.57a53.37,53.37,0,1,0,53.36,53.37A53.37,53.37,0,0,0,65.52,12.57ZM92.34,71.51a2.05,2.05,0,0,1-2.06,2H73.14V90.84a1.9,1.9,0,0,1-1.91,1.91H59.81a1.9,1.9,0,0,1-1.91-1.91V73.56H40.76a2.05,2.05,0,0,1-2.06-2V60.37a2.05,2.05,0,0,1,2.06-2H57.9V41a1.91,1.91,0,0,1,1.91-1.92H71.23A1.91,1.91,0,0,1,73.14,41V58.32H90.28a2.05,2.05,0,0,1,2.06,2Z" style="fill:#34acaf"/></svg>