<svg id="Capa_1" data-name="Capa 1" xmlns="http://www.w3.org/2000/svg" viewBox="0 0 130 195"><title>iconos para mapa interactivo 2018</title><path d="M128.94,67.89c0,37-38.37,126.19-63.94,126.19-23.56,0-63.94-89.21-63.94-126.19S28,.92,65,.92,128.94,30.9,128.94,67.89Z" style="fill:#fff;stroke:#9fc432;stroke-miterlimit:10"/><circle cx="66.73" cy="63.99" r="44.22" style="fill:#fff"/><path d="M71.82,52.18a6.3,6.3,0,1,0-12.59,0,6.23,6.23,0,0,0,6.3,6.29A6.3,6.3,0,0,0,71.82,52.18Z" style="fill:#9fc432"/><path d="M65.55,12.67A53.37,53.37,0,1,0,118.92,66,53.36,53.36,0,0,0,65.55,12.67Zm.09,26.81A11.89,11.89,0,0,1,77.52,51.36C77.52,56.52,70,70,66,76.36a.48.48,0,0,1-.37.14c-.3,0-.38-.11-.4-.13-4-6.47-11.5-19.89-11.5-25A11.89,11.89,0,0,1,65.64,39.48ZM92.93,91a2,2,0,0,1-1.39.81l-15.61,2a3.39,3.39,0,0,1-1-.09L56.64,87.85a3.54,3.54,0,0,0-.91-.11,4.06,4.06,0,0,0-.92.11L40.63,91.61a2.13,2.13,0,0,1-2-.44,2,2,0,0,1-.57-2l5-20.18a2.33,2.33,0,0,1,1.23-1.44l8.57-3.4a167.62,167.62,0,0,0,8.18,14.93,5.38,5.38,0,0,0,9.18,0C72.09,76,74,72.7,75.87,69.29c.8-.14,3.09-.58,10-2a2.06,2.06,0,0,1,2.36,1.5l5,20.45,0,0A2.27,2.27,0,0,1,92.93,91Z" style="fill:#9fc432"/></svg>