<svg id="Capa_1" data-name="Capa 1" xmlns="http://www.w3.org/2000/svg" viewBox="0 0 130 195"><title>iconos para mapa interactivo 2018</title><path d="M129.07,67.89c0,37-38.36,126.19-63.94,126.19-23.55,0-63.94-89.21-63.94-126.19s27-67,63.94-67S129.07,30.9,129.07,67.89Z" style="fill:#fff;stroke:#34acaf;stroke-miterlimit:10"/><circle cx="67.36" cy="66.23" r="44.22" style="fill:#fff"/><path d="M65.71,12.86a53.37,53.37,0,1,0,53.36,53.37A53.37,53.37,0,0,0,65.71,12.86Zm-4.2,43.75c0,1.1-3.84,4.52-4.86,4.88V93.94a3.41,3.41,0,0,1-6.81,0V61.49c-1-.36-5.57-3.78-5.57-4.88V42.2A1.74,1.74,0,0,1,46,40.48a1.74,1.74,0,0,1,1.72,1.72V53.41a1.66,1.66,0,0,0,.51,1.21,1.69,1.69,0,0,0,1.22.51,1.74,1.74,0,0,0,1.72-1.72V42.2A1.65,1.65,0,0,1,51.68,41a1.7,1.7,0,0,1,2.43,0,1.65,1.65,0,0,1,.51,1.21V53.41a1.72,1.72,0,0,0,3.44,0V42.2a1.73,1.73,0,0,1,3.45,0Zm4.15,9.62h0ZM83.75,94a3.41,3.41,0,0,1-6.81,0V69.44H73a.85.85,0,0,1-.86-.86V47a8.64,8.64,0,0,1,8.62-8.62H82a1.74,1.74,0,0,1,1.72,1.72Z" style="fill:#34acaf"/></svg>