<svg id="Capa_1" data-name="Capa 1" xmlns="http://www.w3.org/2000/svg" viewBox="0 0 130 195"><title>iconos para mapa interactivo 2018</title><path d="M129.07,67.89c0,37-38.36,126.19-63.94,126.19-23.55,0-63.94-89.21-63.94-126.19s27-67,63.94-67S129.07,30.9,129.07,67.89Z" style="fill:#fff;stroke:#692dac;stroke-miterlimit:10"/><circle cx="65.67" cy="68.51" r="44.22" style="fill:#fff"/><polygon points="63.53 76.43 63.53 76.43 63.53 76.43 63.53 76.43" style="fill:#692dac"/><polygon points="73.77 70.5 73.77 70.5 73.77 70.5 73.77 70.5" style="fill:#692dac"/><polygon points="58.96 68.51 58.96 68.51 58.96 68.51 58.96 68.51" style="fill:#692dac"/><polygon points="59.03 69.09 59.03 69.09 59.03 69.09 59.03 69.09" style="fill:#692dac"/><path d="M65.67,12.81A53.37,53.37,0,1,0,119,66.17,53.36,53.36,0,0,0,65.67,12.81ZM64.26,77.24a1.35,1.35,0,0,1-.65.85l-9.49,5.48a.89.89,0,0,0-.41.54.85.85,0,0,0,.09.66.9.9,0,0,0,1.19.32l4.79-2.76a1.4,1.4,0,0,1,1.9.51A1.47,1.47,0,0,1,61.87,84a1.42,1.42,0,0,1-.65.85l-5.66,3.26c-2.51,1.53-6.27,3.15-8.61,3.31h-.17l-.16-.08a.62.62,0,0,0-.51,0l-.18.07-.19,0a2.12,2.12,0,0,1-.67-.24.9.9,0,0,0-.87,0L39.85,93.6,33.33,82.32l3-1.75a.85.85,0,0,0,.42-.64c.59-4.63,1.85-5.71,3.32-7a10.71,10.71,0,0,0,3.28-4.21c1.28-2.9,2.6-3,3-3l.21,0a1.69,1.69,0,0,1,1,1.08c.54,1.67-1,4.51-1.58,5.47a.87.87,0,0,0,1.22,1.2l10.31-6a1.4,1.4,0,0,1,1.06-.13,1.31,1.31,0,0,1,.84.65,1.46,1.46,0,0,1,.19,1.13,1.42,1.42,0,0,1-.65.85l-9.5,5.48a.83.83,0,0,0-.4.53.89.89,0,0,0,.08.66.91.91,0,0,0,1.2.32L61.79,70.5a1.39,1.39,0,0,1,1.06-.13,1.35,1.35,0,0,1,.84.64,1.49,1.49,0,0,1,.19,1.14,1.42,1.42,0,0,1-.65.85l-1.58.91a2.2,2.2,0,0,0-.35.18l-9.48,5.49a.88.88,0,0,0-.32,1.2.9.9,0,0,0,1.19.32l9.64-5.57a1.47,1.47,0,0,1,.9-.07,1.42,1.42,0,0,1,.85.65l0,.08A1.33,1.33,0,0,1,64.26,77.24Zm2.4-11.38V64c0-.17,0-.28,0-.38l0-11a.88.88,0,0,0-1.75,0V63.81a1.44,1.44,0,0,1-2.86-.16v-11a.88.88,0,0,0-1.75,0v5.53a1.39,1.39,0,0,1-1.39,1.39,1.42,1.42,0,0,1-1.49-1.39V51.68c0-2.32.34-9.21,2.66-10.59a.87.87,0,0,0,.43-.75v-5h13V38.8a.89.89,0,0,0,.35.7c3.72,2.81,4,4.45,4.36,6.34a10.57,10.57,0,0,0,2,4.94c1.88,2.58,1.34,3.79,1.12,4.1l-.14.15a1.74,1.74,0,0,1-1.46.37c-1.71-.37-3.43-3.09-3.94-4.11a.87.87,0,0,0-1.17-.39.86.86,0,0,0-.48.84V63.55a1.44,1.44,0,1,1-2.87.1v-11a.88.88,0,0,0-1.75,0V65.86a1.44,1.44,0,0,1-2.88,0ZM94.15,93.38l-1.8-1a.59.59,0,0,0-.5,0l-.29.11L90.9,92a.89.89,0,0,0-.78,0,11.51,11.51,0,0,1-5.28,1.2c-.37-.1-.59-.18-.81-.25l-.79-.28a10.51,10.51,0,0,0-1.91-.46,10.37,10.37,0,0,0-4.16-.35c-3.18.34-4-.74-4.11-1.08l-.06-.2a1.65,1.65,0,0,1,.42-1.44c1.17-1.31,4.39-1.42,5.52-1.36a.87.87,0,0,0,.92-.82.88.88,0,0,0-.48-.84l-10.31-6a1.43,1.43,0,0,1-.65-.84,1.38,1.38,0,0,1,.14-1.07,1.4,1.4,0,0,1,2-.59L80,83.15a.87.87,0,0,0,.87-1.51L69.46,75.05a1.4,1.4,0,0,1-.51-1.9,1.46,1.46,0,0,1,.89-.73,1.35,1.35,0,0,1,1.06.14l1.58.91.33.22,9.5,5.46a.91.91,0,0,0,1.2-.32.89.89,0,0,0-.32-1.2l-9.64-5.56a1.48,1.48,0,0,1-.52-.75,1.43,1.43,0,0,1,.14-1.06,1.48,1.48,0,0,1,.89-.72,1.35,1.35,0,0,1,1.06.14l9.49,5.48a.91.91,0,0,0,1.2-.32.88.88,0,0,0-.32-1.2l-4.78-2.76A1.39,1.39,0,0,1,80.2,69a1.46,1.46,0,0,1,.89-.73,1.36,1.36,0,0,1,1.06.14l5.65,3.26c2,1.12,7.81,4.89,7.84,7.59a.86.86,0,0,0,.44.75l4.35,2.52Z" style="fill:#692dac"/><polygon points="69.55 73.39 69.55 73.39 69.55 73.39 69.55 73.39" style="fill:#692dac"/></svg>