<svg id="Capa_1" data-name="Capa 1" xmlns="http://www.w3.org/2000/svg" viewBox="0 0 130 195"><title>iconos para mapa interactivo 2018</title><path d="M128.94,67.89c0,37-38.37,126.19-63.94,126.19-23.56,0-63.94-89.21-63.94-126.19S28,.92,65,.92,128.94,30.9,128.94,67.89Z" style="fill:#fff;stroke:#34acaf;stroke-miterlimit:10"/><circle cx="65.55" cy="65.58" r="44.22" style="fill:#fff"/><path d="M65.55,12.67A53.37,53.37,0,1,0,118.92,66,53.36,53.36,0,0,0,65.55,12.67ZM62.42,40.79l19,8.33-1.36,3.11H62.57l-4.33-1.9ZM88,58.45,82,76.56c-.31.82-.63,1.45-2.35,1.45H57l.21,2.72a4.67,4.67,0,0,1,4,2.25H76.14a5.52,5.52,0,0,1,4.26-2.1c3.75,0,5.64,2.75,5.64,5.86a5.82,5.82,0,0,1-5.67,5.83A5.92,5.92,0,0,1,74.75,88H62.66A6.33,6.33,0,0,1,57,92.5a6,6,0,0,1-4.14-10l-6.21-28H38.57c-1,0-1.57-.23-1.57-1.13v-2.5c0-.93.54-1.4,1.54-1.4h9.6a2.42,2.42,0,0,1,2.45,2l.91,4.32H85.7a2.74,2.74,0,0,1,2.16.89A1.78,1.78,0,0,1,88,58.45Z" style="fill:#34acaf"/></svg>