<svg id="Capa_1" data-name="Capa 1" xmlns="http://www.w3.org/2000/svg" viewBox="0 0 130 195"><title>iconos para mapa interactivo 2018</title><path d="M128.94,67.89c0,37-38.37,126.19-63.94,126.19-23.56,0-63.94-89.21-63.94-126.19S28,.92,65,.92,128.94,30.9,128.94,67.89Z" style="fill:#fff;stroke:#e74f1c;stroke-miterlimit:10"/><circle cx="67.97" cy="65.5" r="44.22" style="fill:#fff"/><path d="M58.2,75.18A2.82,2.82,0,1,0,61,78,2.83,2.83,0,0,0,58.2,75.18Z" style="fill:#e74f1c"/><path d="M65.79,61.43h-.05a2.74,2.74,0,1,0,0,5.47h.05a2.74,2.74,0,1,0,0-5.47Z" style="fill:#e74f1c"/><path d="M70.47,78a2.82,2.82,0,1,0,2.81-2.81A2.84,2.84,0,0,0,70.47,78Z" style="fill:#e74f1c"/><path d="M58,40.89a18,18,0,0,1,1.56,3.77H72a18.59,18.59,0,0,1,1.56-3.77H58Z" style="fill:#e74f1c"/><path d="M65.55,12.67A53.37,53.37,0,1,0,118.92,66,53.36,53.36,0,0,0,65.55,12.67ZM76,91.82A5.63,5.63,0,0,1,71,94.94H60.55a5.62,5.62,0,0,1-5.06-3.13c-.76-1.52-1.25-2.53-2.32-4.41H78.35C77.31,89.24,76.67,90.54,76,91.82Zm4.56-8.19H50.93c-.44-.74-.89-1.55-1.33-2.43l8.59-12.44,6,9a2,2,0,0,0,3.14,0l6-9L81.92,81.2C81.49,82.08,81,82.89,80.59,83.63Zm3-6.61L74.85,64.33a1.89,1.89,0,0,0-3.12,0l-6,9-6-9a1.89,1.89,0,0,0-3.12,0L47.9,77a20.17,20.17,0,0,1-1-6,17.3,17.3,0,0,1,.4-3.65h0c.09-.37.19-.78.31-1.17A32,32,0,0,1,48.83,63a25.73,25.73,0,0,1,4.26-6.42,13.37,13.37,0,0,0,.81-1.1h0A12.64,12.64,0,0,0,54.76,54l0,0h0l.05-.1a13.79,13.79,0,0,0,1.32-3.7h0v0a7.76,7.76,0,0,0,.13-2.47A14.33,14.33,0,0,0,53,40.27a1.89,1.89,0,0,1,1.41-3.15H77.07a1.89,1.89,0,0,1,1.41,3.15,14.33,14.33,0,0,0-3.26,7.43,7.85,7.85,0,0,0,.14,2.47v0h0a14.22,14.22,0,0,0,1.33,3.7l0,.1h0l0,0a12.64,12.64,0,0,0,.86,1.42h0a11.91,11.91,0,0,0,.82,1.1A25.85,25.85,0,0,1,82.69,63a34.15,34.15,0,0,1,1.22,3.26c.11.39.21.8.3,1.17h0a17.29,17.29,0,0,1,.41,3.65A20.18,20.18,0,0,1,83.62,77Z" style="fill:#e74f1c"/></svg>