<svg id="Capa_1" data-name="Capa 1" xmlns="http://www.w3.org/2000/svg" viewBox="0 0 130 195"><title>iconos para mapa interactivo 2018</title><path d="M129.07,67.89c0,37-38.36,126.19-63.94,126.19-23.55,0-63.94-89.21-63.94-126.19s27-67,63.94-67S129.07,30.9,129.07,67.89Z" style="fill:#fff;stroke:#e74f1c;stroke-miterlimit:10"/><circle cx="65.68" cy="66.17" r="44.22" style="fill:#fff"/><polygon points="60.75 74.92 70.58 74.92 65.67 63.92 60.75 74.92" style="fill:#e74f1c"/><path d="M65.68,12.81a53.37,53.37,0,1,0,53.37,53.36A53.36,53.36,0,0,0,65.68,12.81Zm-4,23.11a1.43,1.43,0,0,1,1.44-1.44h5.22a1.43,1.43,0,0,1,1.44,1.44V42.4a1.44,1.44,0,0,1-1.44,1.44H63.09a1.44,1.44,0,0,1-1.44-1.44Zm-7.8,54.45a3.59,3.59,0,0,1-3.19,2.11l-1,3a1.19,1.19,0,0,1-1.13.82,1.26,1.26,0,0,1-.38-.06,1.21,1.21,0,0,1-.76-1.51l1-3a3.59,3.59,0,0,1-1.08-4.29l2-4.38h7.84Zm30,7a1.31,1.31,0,0,1-.38.06,1.23,1.23,0,0,1-1.16-.84L81,92.46a2,2,0,0,1-.24,0,3.59,3.59,0,0,1-3.27-2.12l-3.26-7.31h7.84l2,4.38a3.58,3.58,0,0,1-.79,4l1.42,4.32A1.22,1.22,0,0,1,83.88,97.33Zm-.41-17.78H48.55a2.32,2.32,0,0,1,0-4.63h4.36l6.68-15A7.82,7.82,0,1,1,71.77,60l6.66,14.9h5a2.32,2.32,0,1,1,0,4.63Z" style="fill:#e74f1c"/></svg>